<svg preserveAspectRatio="none" overflow="visible" style="display: block;" width="21.5001" height="21.5" viewBox="0 0 21.5001 21.5" fill="none" xmlns="http://www.w3.org/2000/svg">
<g id="elements">
<path id="Vector 6810" d="M5.25 8.25L0.75 8.25L0.75 20.75H5.25L5.25 8.25Z" stroke="var(--stroke-0, #262626)" stroke-width="1.5" stroke-linejoin="round"/>
<path id="Ellipse 1922" d="M5.25 3C5.25 4.24264 4.24264 5.25 3 5.25C1.75736 5.25 0.75 4.24264 0.75 3C0.75 1.75736 1.75736 0.75 3 0.75C4.24264 0.75 5.25 1.75736 5.25 3Z" stroke="var(--stroke-0, #262626)" stroke-width="1.5" stroke-linejoin="round"/>
<path id="Vector" d="M12.7501 8.25L8.25 8.25L8.25 20.75H12.7501L12.7501 14.5002C12.7501 13.5337 13.5335 12.7502 14.5 12.7502C15.4665 12.7502 16.25 13.5337 16.25 14.5002L16.25 20.75L20.7487 20.75L20.7501 12.7502C20.7501 10.265 18.3864 8.25024 16.0468 8.25024C14.7149 8.25024 13.5267 8.90309 12.7501 9.92395V8.25Z" stroke="var(--stroke-0, #262626)" stroke-width="1.5" stroke-linejoin="round"/>
</g>
</svg>
